<svg xmlns="http://www.w3.org/2000/svg" viewBox="0 0 122.58 171.85"><defs><style>.cls-1{fill:#e52c1c;}</style></defs><g id="レイヤー_2" data-name="レイヤー 2"><g id="レイヤー_1-2" data-name="レイヤー 1"><path class="cls-1" d="M116.2,0H6.38A6.38,6.38,0,0,0,0,6.38V116.2a6.38,6.38,0,0,0,6.38,6.38H116.2a6.38,6.38,0,0,0,6.38-6.38V6.38A6.38,6.38,0,0,0,116.2,0ZM81.51,118.16l-.12-.08c0-3.33.7-4.35,1.63-5.74,1-1.57,2.36-3.53,2.36-8.28v-1.48h7.11c.79,0,1.43-1,1.43-2.31S93.28,98,92.49,98H85.38V86.24a7,7,0,0,0-2.58-5.65l-.7-.52a3.73,3.73,0,0,0,.43-1.79V36.54c0-1.41-.66-2.55-1.47-2.55s-1.48,1.14-1.48,2.55V78.28c0,.17,0,.34,0,.5a1.85,1.85,0,0,0-1,1.26,3.08,3.08,0,0,0,.7,3.08l2.25,1.68a2.08,2.08,0,0,1,.92,1.44V98H81.19c-.79,0-1.43,1-1.43,2.32s.64,2.31,1.43,2.31h1.34v1.48a6.94,6.94,0,0,1-1.45,4.88,12.79,12.79,0,0,0-2.35,6.12,11.33,11.33,0,0,1-1.19-4.12V87.56c0-3.37-2.21-5.92-5.13-5.92H71.9c0-.14,0-.28,0-.43,0-2-.85-3.61-1.88-3.61s-1.88,1.61-1.88,3.61c0,.15,0,.29,0,.43h-.58c-2.93,0-5.13,2.55-5.13,5.92v23.38c0,1.16-1.3,3.55-2.7,5.47L54.07,109l-.09-.11a14.87,14.87,0,0,1-3.95-10,2.7,2.7,0,0,1,2.78-2.06H55c3.17,0,5.64-2.93,5.64-6.68V86.88c0-3.75-2.47-6.69-5.64-6.69h-1.4a5.73,5.73,0,0,0,1-1.08,7.42,7.42,0,0,0,2-3.2c3.42-9.48,2.23-28.62,1.78-34.22,0-.74.39-1.25.68-1.25h2.69c.31,0,.68.61.68,1.41V67.24c0,1.61.6,2.83,1.39,2.83s1.39-1.22,1.39-2.83V41.85c0-4-1.52-7.07-3.46-7.07H59c-2,0-3.47,3.11-3.47,7.07,0,.17,0,.34,0,.51.08.88,1.79,21.68-1.25,30.12A6.11,6.11,0,0,1,53,74.81C51.9,71.93,49.7,70,47.38,67.9a23.8,23.8,0,0,1-3.61-3.71,1,1,0,0,1,.26,0h6.44c1.85,0,3.19-2.08,3.19-5v-.58c0-3.79-1.91-7.27-4.55-7.27H44.47a2.2,2.2,0,0,1-.64-.09,2.35,2.35,0,0,1-1.68-2.32v-.47h6.22c2.64,0,4.56-2.75,4.56-6.54V37.41c0-1.41-.5-2.55-1.12-2.55,0,0-8.27,1.3-11.71,0-.58-.23-2.67.51-1.11,2.55.8,1.05,1.6,2.37,2.22,2.34,3.06-.14,9.49.21,9.49.21v1A2.38,2.38,0,0,1,49,43.28a2.61,2.61,0,0,1-.64.08H41c-.61,0-1.11,1.14-1.11,2.55v4c0,3.79,1.91,6.54,4.55,6.54h4.64c1.82,0,2.28,1.94,2.29,2.59a6.59,6.59,0,0,1-.93,0H44c-1.42,0-2.54,1.47-2.77,3.66-.51,4.77,2.19,7.17,5.32,9.94,1.54,1.37,4.74,4.22,4.86,6,0,0,0,.06,0,.1v.07a.77.77,0,0,1,0,.15l0,.21c0,.07,0,.14,0,.21s0,.13.05.19a1.46,1.46,0,0,0,0,.2l.06.15c0,.07,0,.12.07.18l0,.08H45.26a2.7,2.7,0,0,1-2.79-2.06c0-1.28-.63-2.31-1.42-2.31s-1.43,1-1.43,2.31c0,3.75,2.48,6.69,5.64,6.69H46a2.67,2.67,0,0,0-.79,2.06v2a5.65,5.65,0,0,1-1.09,2.85c-1.28,2.28-3,5.41-3,12.38l0,.47,1,8.08a3.63,3.63,0,0,1,0,.57c0,1.19-.27,3.23-1.21,3.45s-2.64-4.36-2.64-5.7V87.56c0-3.37-2.2-5.92-5.13-5.92h-.54c0-.14,0-.28,0-.43,0-2-.84-3.61-1.88-3.61s-1.88,1.61-1.88,3.61c0,.15,0,.29,0,.43h-.55c-2.92,0-5.13,2.55-5.13,5.92v23.38c0,1.4-1.89,4.61-3.58,6.61a2,2,0,0,0-.36.61H8.75a14.73,14.73,0,0,0,1-5.06v-12h5.75c.76,0,1.39-1,1.39-2.32s-.63-2.31-1.39-2.31H9.78V92.79h5.75c.76,0,1.39-1,1.39-2.31s-.63-2.31-1.39-2.31H9.78V85A2.2,2.2,0,0,1,12,83.33h3.93A2.19,2.19,0,0,1,18.15,85v18.86a2.65,2.65,0,0,1-2.71,2.06H11c-.77,0-.06,1.08.25,2.31.41,1.64-.66,3.63.11,3.63,0,0,2.89-.19,4.1-.21,3.08-.07,5.46-4,5.46-7.79V85c0-3.54-2.19-6.31-5-6.31H12c-2.8,0-5,2.77-5,6.31V113.1a10.24,10.24,0,0,1-1.24,4l-.48.71a2,2,0,0,1-.87-1.63V80.8C7,80.55,9.55,77.73,9.55,74V44.31c.13-.53.28-1.76,1.81-1.76h.73V74.6c0,1.41.79,2.55,1.41,2.55S14.91,76,14.91,74.6v-32H16.1c1.53,0,1.68,1.23,1.81,1.76V74c0,3.88,2.79,6.8,5.51,6.8.62,0,1.23-.58,1.23-2s-.61-3.12-1.23-3.12A2.73,2.73,0,0,1,20.87,74V44.24c0-3.87-2.05-6.79-4.77-6.79H14.91v-.91c0-1.41-.79-2.55-1.41-2.55s-1.41,1.14-1.41,2.55v.91h-.73c-2.72,0-4.77,2.92-4.77,6.79V74a2.75,2.75,0,0,1-2.18,1.72V23.35a2.84,2.84,0,0,0,.72.1,3.1,3.1,0,0,0,.69-.08,10.23,10.23,0,0,0,5.09-3.07,8.29,8.29,0,0,0,2.37-4.86c0-.35,0-.83,0-1.47,0-.25,0-.69-.06-1.24s-.06-1.72-.06-2c0-2,1-3,3.12-3h4.74V34a1.66,1.66,0,0,0,.7,1.34,2.5,2.5,0,0,0,1.6.54A2.6,2.6,0,0,0,25,35.36,1.65,1.65,0,0,0,25.71,34V7.69h4.7a3.49,3.49,0,0,1,2.44.64,2.81,2.81,0,0,1,.64,2.06v5.7a7,7,0,0,0,2.32,4.53,11.17,11.17,0,0,0,5.12,2.79,3.25,3.25,0,0,0,.67.07,2.5,2.5,0,0,0,1.6-.54,1.67,1.67,0,0,0,.71-1.34c0-.83-.54-1.43-1.6-1.8h0c-2.79-1-4.21-2.25-4.21-3.83,0-.32,0-.84,0-1.54s0-1.26,0-1.63c0-2.19-.33-5-1.25-6.33A5.61,5.61,0,0,0,34,4.41h8.3a2.8,2.8,0,0,0,.48.3h0A31.77,31.77,0,0,1,47.36,7.3,16.81,16.81,0,0,1,50.81,11a2.19,2.19,0,0,0,1.89,1.09,2.11,2.11,0,0,0,1.49-.59,1.86,1.86,0,0,0,.64-1.41c0-1.36-1.48-3.2-4.51-5.62l-.1-.08H70.28l-.1.08c-3,2.42-4.52,4.26-4.52,5.62a1.86,1.86,0,0,0,.65,1.41,2.19,2.19,0,0,0,1.51.59A2.22,2.22,0,0,0,69.71,11,16.47,16.47,0,0,1,73.17,7.3a28.54,28.54,0,0,1,4.56-2.59,2.9,2.9,0,0,0,.49-.3h.44a4.11,4.11,0,0,0,.51.74l.23.24,4.15,3.66a11,11,0,0,0,1.35,1c-1.72,2.12-3,4.53-1.8,6.65,1.71,3,6.92,3,12.45,3.08,3.53,0,8.36.07,9.61,1.18a.81.81,0,0,1,.24.75c-.09,1.58-6.82,1.51-10.83,1.47-5.69-.05-10.61-.1-13.11,2a4,4,0,0,0-1.44,3c-.09,3.2,2.57,5.08,5.62,6.17a3.69,3.69,0,0,0-.54,2.17V73.45c0,5,3.45,7.62,6,7.65v2.67c0,.54,0,1.81-3.81,1.81-.79,0-1.43,1-1.43,2.31s.64,2.32,1.43,2.32c1.19,0,3.66,0,5.23-1.8a5.7,5.7,0,0,0,3.82,1.74v17.11a4,4,0,0,1-3.81,4H90.77c-7.61,0-8.21,5.47-8.24,6.87ZM33.19,86.27a2.42,2.42,0,0,1,2.28,1.29V103a27.53,27.53,0,0,1-3-10.88s-.47-4.21-1.71-4.25-1.7,4.25-1.7,4.25a27.65,27.65,0,0,1-3,10.88V87.58a2.39,2.39,0,0,1,2.27-1.31Zm-7.07,24.67v-1.71a24.61,24.61,0,0,0,4.67-9.73,24.62,24.62,0,0,0,4.68,9.73v1.71a18.45,18.45,0,0,0,1.93,7.22H23.62A14.68,14.68,0,0,0,26.12,110.94ZM45,112.22l-1-8.09c0-.2,0-.41,0-.62a15.6,15.6,0,0,1,2.29-8.71,11.16,11.16,0,0,0,1.83-6v-2a2.67,2.67,0,0,0-.79-2.06H55a2.7,2.7,0,0,1,2.79,2.06v3.23A2.71,2.71,0,0,1,55,92.17h-2.2c-3.16,0-5.64,2.93-5.64,6.68a20.42,20.42,0,0,0,5.16,13.79l4.23,5.52H44.2a14.13,14.13,0,0,0,.84-5.48ZM72.41,86.27a2.42,2.42,0,0,1,2.27,1.29V99.25c-1.57-2.88-2.64-3.76-3-7.94l-.24-3.15a2.37,2.37,0,0,0-1-1.89Zm-2.92,0a2.36,2.36,0,0,0-.94,1.89l-.25,3.15c-.33,4.18-1.4,5.07-3,7.94V87.58a2.4,2.4,0,0,1,2.28-1.31Zm-4.16,24.67v-5.48A24.62,24.62,0,0,0,70,95.73a24.61,24.61,0,0,0,4.67,9.73v5.48a18.45,18.45,0,0,0,1.93,7.22H62.83A14.65,14.65,0,0,0,65.33,110.94ZM118.16,6.38V25.07a17,17,0,0,0-1.58,1.71c-3.13,3.74-18.34,6.5-27.15,4.48-2.11-.48-4.62-1.4-4.64-3.1,0-.12,0-.13,0-.16,1.08-.9,6.25-.85,9.68-.82,7.18.07,15.33.16,15.65-5.27a4.43,4.43,0,0,0-1.53-3.69c-2.64-2.35-7.92-2.4-13-2.44a50.73,50.73,0,0,1-7.12-.39,1,1,0,0,1-.72-1.5,12.16,12.16,0,0,1,1.64-2.23,12.62,12.62,0,0,0,1.51.1H105c6.44,0,10.38-4.43,12.17-7.09A2,2,0,0,1,118.16,6.38Zm0,69.24A2.7,2.7,0,0,1,116.34,74V44.24c0-3.87-2.06-6.79-4.78-6.79h-1.19v-.91a3.41,3.41,0,0,0-.67-2.08,28.05,28.05,0,0,0,8.46-3.35ZM96.93,36.45c-2.25,3-2.2,11-2.16,17.42,0,1.48,0,2.88,0,4.11,0,1.79,0,3.39-.06,4.84-.14,11.66-.23,12.54-3.45,12.54a2.94,2.94,0,0,1-2.14-.64,4,4,0,0,1-.63-2.81V36.21c0-.36,0-.71,0-1a39.73,39.73,0,0,0,8.27.78h.56Zm8-28.69H90.91A5.91,5.91,0,0,1,87,6.3L84.88,4.41h26.78A9.08,9.08,0,0,1,105,7.76ZM90.77,115.91h1.72c3.68,0,6.67-3.88,6.67-8.65V87.89c0-1.28-.64-2.31-1.43-2.31-3.81,0-3.81-1.27-3.81-1.81V81a2.74,2.74,0,0,0,0-.5,5.31,5.31,0,0,0,1.55-1.11c3.23-3.3,3.06-10.78,2.91-17.37,0-1.34-.06-2.63-.06-3.84s0-2.43,0-3.53c0-9,0-13.06,1.44-15.86a13.15,13.15,0,0,1,2-2.49l.57-.62a54.27,54.27,0,0,0,5.68-.85,3.68,3.68,0,0,0-.42,1.7v.91h-.73c-2.72,0-4.77,2.92-4.77,6.79V74a2.73,2.73,0,0,1-2.55,1.75H99c-.61,0-1.11,1.15-1.11,2.56s.5,2.55,1.11,2.55h.46c2.73,0,5.51-2.92,5.51-6.8V44.31c.13-.53.28-1.76,1.81-1.76h.73V74.6c0,1.41.8,2.55,1.41,2.55s1.41-1.14,1.41-2.55v-32h1.19c1.53,0,1.69,1.23,1.81,1.76V74c0,3.54,2.32,6.27,4.79,6.72v34.07a47.11,47.11,0,0,0-7.42-3,16.89,16.89,0,0,1-7.19-4.91c-.22-.26-.86-1.29-.38-1.33,1.5-.1,3.54,0,4.85.08l1,0h2c3.24,0,5.74-3.13,5.74-7.06,0-2.79-1.74-4.58-5.74-4.38-1.2.06-4.82,0-4.82,0-1.66,0-2.46-.34-2.46-1.94a19.65,19.65,0,0,1,2.46-.08h3.38c3.25,0,6-3,6.46-5.94s.14-4.74-1.1-4.74c-4.84,0-5.23,0-14,0-.79,0-4,.07-1.75,1.61,1,.74.64,2.75,1.42,2.75h9a16.68,16.68,0,0,1,2.92.19c0,1.39-1.25,2.24-2.92,2.24H106.2c-3.19,0-2.75.19-4.3.19-1.35,0-.68,2.84-.66,4.15v.79c0,3.34,1.71,5.13,5,5.13h5.11c3.09,0,2.49,2.46,2.49,2.46H109l-.91,0c-2.21-.07-5-.17-6.45,2.18a7,7,0,0,0-.94,3.71v.15c0,5.32,5.11,8.18,10.68,9.76a8.46,8.46,0,0,1,2.6,1.34H85.4C85.58,117.14,88,115.91,90.77,115.91ZM6.38,4.41h6.44a6.7,6.7,0,0,0-2.2,1.22,6.07,6.07,0,0,0-2,4.76v4.9a4.28,4.28,0,0,1-1.32,2.62,7.61,7.61,0,0,1-2.89,1.86h0V6.38A2,2,0,0,1,6.38,4.41Z"/><path class="cls-1" d="M73.62,34.78H70.94c-2,0-3.39,3-3.39,7v.39c.52,6.88,1.15,23.48-1.32,30.34-.72,2-1.64,3-2.82,3-.79,0-1.39,1.21-1.39,2.83s.6,2.82,1.39,2.82c2.11,0,3.82-1.74,5.06-5.19,3.42-9.49,2.22-28.62,1.78-34.21,0-.75.39-1.26.68-1.26h2.68c.32,0,.69.61.69,1.41V78.28c0,1.61.6,2.82,1.39,2.82s1.39-1.21,1.39-2.82V41.85C77.09,37.89,75.57,34.78,73.62,34.78Z"/><path class="cls-1" d="M26.67,70.55V41.73A3.42,3.42,0,0,0,25.91,39c-.61-.87-1.6-1.81-2.14-1.81a.55.55,0,0,0-.46.27c-.47.66-.34,2.63.28,4.29V70.2a8.14,8.14,0,0,0,1.26,4.32A2.47,2.47,0,0,0,27,76l.22,0a1.2,1.2,0,0,0,1.07-.93,4.41,4.41,0,0,0-1.21-4C26.87,70.88,26.67,70.65,26.67,70.55Z"/><path class="cls-1" d="M34.2,71.12C32.49,70,32,69.42,32,67.64V40.33c0-3-1.54-5.21-3.66-5.21-.64,0-1.39.6-1.39,2.3,0,1.45.88,2.35,1.7,2.35.21,0,.34.44.44.73a1.63,1.63,0,0,0,.13.36V67.64c0,6,2.44,7.55,4.06,8.6l.15-.23-.15.23C34,76.71,34.88,77.29,35,78c.21,1,.71,1.66,1.29,1.66a.94.94,0,0,0,.65-.29,4.2,4.2,0,0,0,.64-3.46A6.57,6.57,0,0,0,34.2,71.12Z"/><path class="cls-1" d="M36.82,62.25c.76-10.89,1.13-24.39-1.4-26.84a1.43,1.43,0,0,0-1.4-.24,1.89,1.89,0,0,0-1.3,1.44c-.27,1.33.77,3,1.35,3.56.59,1.38.72,11,0,21.5,0,.13,0,.26,0,.39,0,7.18,2.21,8.61,3.82,9.65A4.33,4.33,0,0,1,40,74.16h0c.25.74.67,1.17,1.15,1.17a1.07,1.07,0,0,0,.9-.62,4.82,4.82,0,0,0,.26-3.63,7.57,7.57,0,0,0-3.51-4.48C37.37,65.68,36.84,65.33,36.82,62.25Z"/><path class="cls-1" d="M52.7,17.1a2.15,2.15,0,0,0-1.49.57,1.86,1.86,0,0,0-.64,1.4c0,4.09-1.88,7.7-5.58,10.72-.68.46-1.37.91-2.09,1.38-.94.71-1.4,1.36-1.4,2a1.86,1.86,0,0,0,.64,1.4,2.2,2.2,0,0,0,1.49.57c.85,0,2.23-.8,4.22-2.44,4.63-3.87,7-8.46,7-13.64a1.86,1.86,0,0,0-.64-1.4A2.15,2.15,0,0,0,52.7,17.1Z"/><path class="cls-1" d="M77.58,31.16l-2-1.37c-3.72-3-5.6-6.63-5.6-10.72a1.86,1.86,0,0,0-.64-1.4,2.27,2.27,0,0,0-3,0,1.81,1.81,0,0,0-.66,1.4c0,5.18,2.36,9.77,7,13.64,2,1.64,3.37,2.44,4.22,2.44a2.14,2.14,0,0,0,1.49-.58A1.79,1.79,0,0,0,79,33.18C79,32.53,78.55,31.87,77.58,31.16Z"/><path class="cls-1" d="M76.6,13.06a44.31,44.31,0,0,0-5-.31c-2.88-.12-6.19-.19-9.82-.21v-.81l-.37.13a4.31,4.31,0,0,1-3,0l-.37-.13v.81c-3.63,0-6.94.09-9.82.21a44.59,44.59,0,0,0-5,.31c-1.52.32-1.84,1.24-1.84,2a1.94,1.94,0,0,0,.62,1.46,2,2,0,0,0,1.55.53l.2,0c5.09-.29,9.89-.45,14.26-.48v1.2l.36-.1a4,4,0,0,0,.74-.38,3.73,3.73,0,0,1,.74-.38,3.53,3.53,0,0,1,.75.38,4,4,0,0,0,.74.38l.36.1V16.5c4.37,0,9.17.19,14.26.48l.2,0a2,2,0,0,0,1.55-.53A1.94,1.94,0,0,0,78.45,15C78.45,14.3,78.13,13.38,76.6,13.06Z"/><path class="cls-1" d="M13.75,167.71a6.56,6.56,0,0,1-4.83-2v6.17H1.1V150.4H8.92v1.74a6.52,6.52,0,0,1,4.83-2c4.65,0,7.67,4,7.67,8.78S18.4,167.71,13.75,167.71Zm-2.58-11.77a2.76,2.76,0,0,0-2.66,3,2.7,2.7,0,0,0,2.66,2.92A2.71,2.71,0,0,0,13.79,159,2.8,2.8,0,0,0,11.17,155.94Z"/><path class="cls-1" d="M32.63,167.85v-1.53a7.63,7.63,0,0,1-5.33,1.79c-2.95,0-5.56-1.71-5.56-4.77,0-4,3.77-6,10.89-6.26v-.23c0-1-.63-1.49-2.46-1.49A12,12,0,0,0,25,156.63l-1.83-4.25a19.83,19.83,0,0,1,9.32-1.83c5.48,0,8.43,1.9,8.43,6.71v10.59Zm.11-7.45c-2.46.07-3.43.82-3.43,2a1.45,1.45,0,0,0,1.57,1.38,2.65,2.65,0,0,0,1.86-.75Z"/><path class="cls-1" d="M57.15,159.05a3.79,3.79,0,0,0-2.57-1c-1.86,0-2.65,1.49-2.65,3.2v6.6H43.58V150.66h8.35v2.13a5.66,5.66,0,0,1,4.63-2.57,5.94,5.94,0,0,1,4.25,1.53Z"/><path class="cls-1" d="M15.15,143.93v-5.65c0-.82-.18-1.28-.86-1.28s-1,.46-1,1.21v5.72H8.13v-5.65c0-.82-.19-1.28-.87-1.28s-1,.46-1,1.21v5.72H1.1v-10.8H6.28v1.15a4,4,0,0,1,3.21-1.43,3.58,3.58,0,0,1,3.11,1.59,4.93,4.93,0,0,1,3.68-1.59c2.74,0,4,1.71,4,4.22v6.86Z"/><path class="cls-1" d="M21.73,131.63v-4h5.35v4Zm.05,12.3v-10.8H27v10.8Z"/><path class="cls-1" d="M28.6,143.93v-17.1h5.24v17.1Z"/><path class="cls-1" d="M35.41,143.93v-17.1h5.25v17.1Z"/><path class="cls-1" d="M46.16,139.46a2.26,2.26,0,0,0,2.3,1.61A5.28,5.28,0,0,0,51.69,140l1.69,2.44A8.36,8.36,0,0,1,48,144.21c-4,0-6.42-2.2-6.42-5.65a5.49,5.49,0,0,1,5.69-5.71c3.61,0,6,2.2,6,6.61Zm1.22-3.89c-.63,0-1.31.54-1.31,1.75h2.67C48.74,136.22,48.18,135.57,47.38,135.57Z"/><path class="cls-1" d="M61.51,143.93v-5.6c0-.84-.21-1.33-.92-1.33s-1,.49-1,1.26v5.67H54.32v-10.8h5.24v1.15a4.15,4.15,0,0,1,3.16-1.43c2.81,0,4,1.85,4,4.22v6.86Z"/><path class="cls-1" d="M75.3,143.93v-5.6c0-.84-.21-1.33-.91-1.33s-1,.49-1,1.26v5.67H68.11v-10.8h5.25v1.15a4.14,4.14,0,0,1,3.16-1.43c2.81,0,4,1.85,4,4.22v6.86Z"/><path class="cls-1" d="M81.91,131.63v-4h5.34v4Zm0,12.3v-10.8H87.2v10.8Z"/><path class="cls-1" d="M95.8,143.93v-1.15a4.16,4.16,0,0,1-3.17,1.43c-2.81,0-4-1.85-4-4.22v-6.86h5.24v5.6c0,.84.21,1.33.92,1.33s1-.49,1-1.26v-5.67H101v10.8Z"/><path class="cls-1" d="M116.57,143.93v-5.65c0-.82-.19-1.28-.86-1.28s-1,.46-1,1.21v5.72h-5.18v-5.65c0-.82-.18-1.28-.86-1.28s-1,.46-1,1.21v5.72h-5.17v-10.8h5.17v1.15a4,4,0,0,1,3.21-1.43,3.59,3.59,0,0,1,3.12,1.59,4.93,4.93,0,0,1,3.68-1.59c2.74,0,4,1.71,4,4.22v6.86Z"/><path class="cls-1" d="M71.3,167.85v-1.53A7.63,7.63,0,0,1,66,168.11c-2.95,0-5.56-1.71-5.56-4.77,0-4,3.77-6,10.89-6.26v-.23c0-1-.63-1.49-2.46-1.49a12,12,0,0,0-5.18,1.27l-1.83-4.25a19.83,19.83,0,0,1,9.32-1.83c5.48,0,8.43,1.9,8.43,6.71v10.59Zm.11-7.45c-2.46.07-3.43.82-3.43,2a1.45,1.45,0,0,0,1.57,1.38,2.65,2.65,0,0,0,1.86-.75Z"/><path class="cls-1" d="M94,167.85V166.1a6.59,6.59,0,0,1-4.88,2.05c-4.7,0-7.76-4.06-7.76-8.87s3.06-8.91,7.76-8.91a6.59,6.59,0,0,1,4.88,2v-5.93h7.91v21.36Zm-2.27-11.59a2.73,2.73,0,0,0-2.65,2.94,2.84,2.84,0,0,0,2.65,3.06,2.79,2.79,0,0,0,2.68-3.06A2.71,2.71,0,0,0,91.76,156.26Z"/><path class="cls-1" d="M111.09,160.73a3.58,3.58,0,0,0,3.66,2.57,8.41,8.41,0,0,0,5.14-1.71l2.69,3.88a13.35,13.35,0,0,1-8.5,2.83c-6.34,0-10.22-3.5-10.22-9a8.74,8.74,0,0,1,9.06-9.09c5.74,0,9.51,3.5,9.51,10.51Zm1.94-6.19c-1,0-2.09.86-2.09,2.8h4.25C115.19,155.59,114.3,154.54,113,154.54Z"/></g></g></svg>